<svg width="16" height="16" viewBox="0 0 16 16" fill="none" xmlns="http://www.w3.org/2000/svg">
<g clip-path="url(#clip0_128_4714)">
<path d="M14 2.00001H9.88C9.6 1.22667 8.86667 0.666672 8 0.666672C7.13333 0.666672 6.4 1.22667 6.12 2.00001H2V14H14V2.00001ZM8 2.00001C8.36667 2.00001 8.66667 2.3 8.66667 2.66667C8.66667 3.03334 8.36667 3.33334 8 3.33334C7.63333 3.33334 7.33333 3.03334 7.33333 2.66667C7.33333 2.3 7.63333 2.00001 8 2.00001ZM9.33333 11.3333H4.66667V10H9.33333V11.3333ZM11.3333 8.66667H4.66667V7.33334H11.3333V8.66667ZM11.3333 6H4.66667V4.66667H11.3333V6Z" fill="black"/>
</g>
<defs>
<clipPath id="clip0_128_4714">
<rect width="16" height="16" fill="white"/>
</clipPath>
</defs>
</svg>
